HIERARCHY
ROOT hip
{
  OFFSET 0 0 0
  CHANNELS 6 Xposition Yposition Zposition Zrotation Yrotation Xrotation
  JOINT abdomen
  {
    OFFSET 0 20.6881 -0.73152
    CHANNELS 3 Zrotation Xrotation Yrotation
    JOINT chest
    {
      OFFSET 0 11.7043 -0.48768
      CHANNELS 3 Zrotation Xrotation Yrotation
      JOINT neck
      {
        OFFSET 0 22.1894 -2.19456
        CHANNELS 3 Zrotation Xrotation Yrotation
        JOINT head
        {
          OFFSET -0.24384 7.07133 1.2192
          CHANNELS 3 Zrotation Xrotation Yrotation
          JOINT leftEye
          {
            OFFSET 4.14528 8.04674 8.04672
            CHANNELS 3 Zrotation Xrotation Yrotation
            End Site
            {
              OFFSET 1 0 0
            }
          }
          JOINT rightEye
          {
            OFFSET -3.6576 8.04674 8.04672
            CHANNELS 3 Zrotation Xrotation Yrotation
            End Site
            {
              OFFSET 1 0 0
            }
          }
        }
      }
      JOINT rCollar
      {
        OFFSET -2.68224 19.2634 -4.8768
        CHANNELS 3 Zrotation Xrotation Yrotation
        JOINT rShldr
        {
          OFFSET -8.77824 -1.95073 1.46304
          CHANNELS 3 Zrotation Xrotation Yrotation
          JOINT rForeArm
          {
            OFFSET -28.1742 -1.7115 0.48768
            CHANNELS 3 Zrotation Xrotation Yrotation
            JOINT rHand
            {
              OFFSET -22.5879 0.773209 7.07136
              CHANNELS 3 Zrotation Xrotation Yrotation
              JOINT rThumb1
              {
                OFFSET -1.2192 -0.487915 3.41376
                CHANNELS 3 Zrotation Xrotation Yrotation
                JOINT rThumb2
                {
                  OFFSET -3.37035 -0.52449 3.41376
                  CHANNELS 3 Zrotation Xrotation Yrotation
                  End Site
                  {
                    OFFSET -1.78271 -1.18214 1.43049
                  }
                }
              }
              JOINT rIndex1
              {
                OFFSET -7.75947 0.938293 5.60832
                CHANNELS 3 Zrotation Xrotation Yrotation
                JOINT rIndex2
                {
                  OFFSET -2.54057 -0.884171 1.56538
                  CHANNELS 3 Zrotation Xrotation Yrotation
                  End Site
                  {
                    OFFSET -1.62519 -0.234802 1.16502
                  }
                }
              }
              JOINT rMid1
              {
                OFFSET -8.24714 1.18213 3.41376
                CHANNELS 3 Zrotation Xrotation Yrotation
                JOINT rMid2
                {
                  OFFSET -3.10165 -0.590103 1.0647
                  CHANNELS 3 Zrotation Xrotation Yrotation
                  End Site
                  {
                    OFFSET -2.48547 -0.328903 0.83742
                  }
                }
              }
              JOINT rRing1
              {
                OFFSET -8.82822 0.546677 1.51678
                CHANNELS 3 Zrotation Xrotation Yrotation
                JOINT rRing2
                {
                  OFFSET -2.60934 -0.819778 -0.0198488
                  CHANNELS 3 Zrotation Xrotation Yrotation
                  End Site
                  {
                    OFFSET -2.33842 -0.294052 0.168128
                  }
                }
              }
              JOINT rPinky1
              {
                OFFSET -8.27202 -0.0477905 -0.4584
                CHANNELS 3 Zrotation Xrotation Yrotation
                JOINT rPinky2
                {
                  OFFSET -1.82734 -0.647385 -0.700984
                  CHANNELS 3 Zrotation Xrotation Yrotation
                  End Site
                  {
                    OFFSET -1.69225 -0.51767 -0.607171
                  }
                }
              }
            }
          }
        }
      }
      JOINT lCollar
      {
        OFFSET 2.68224 19.2634 -4.8768
        CHANNELS 3 Zrotation Xrotation Yrotation
        JOINT lShldr
        {
          OFFSET 8.77824 -1.95073 1.46304
          CHANNELS 3 Zrotation Xrotation Yrotation
          JOINT lForeArm
          {
            OFFSET 28.1742 -1.7115 0.48768
            CHANNELS 3 Zrotation Xrotation Yrotation
            JOINT lHand
            {
              OFFSET 22.5879 0.773209 7.07136
              CHANNELS 3 Zrotation Xrotation Yrotation
              JOINT lThumb1
              {
                OFFSET 1.2192 -0.487915 3.41376
                CHANNELS 3 Zrotation Xrotation Yrotation
                JOINT lThumb2
                {
                  OFFSET 3.37035 -0.52449 3.41376
                  CHANNELS 3 Zrotation Xrotation Yrotation
                  End Site
                  {
                    OFFSET 1.78271 -1.18214 1.43049
                  }
                }
              }
              JOINT lIndex1
              {
                OFFSET 7.75947 0.938293 5.60832
                CHANNELS 3 Zrotation Xrotation Yrotation
                JOINT lIndex2
                {
                  OFFSET 2.54057 -0.884171 1.56538
                  CHANNELS 3 Zrotation Xrotation Yrotation
                  End Site
                  {
                    OFFSET 1.62519 -0.234802 1.16502
                  }
                }
              }
              JOINT lMid1
              {
                OFFSET 8.24714 1.18213 3.41376
                CHANNELS 3 Zrotation Xrotation Yrotation
                JOINT lMid2
                {
                  OFFSET 3.10165 -0.590103 1.0647
                  CHANNELS 3 Zrotation Xrotation Yrotation
                  End Site
                  {
                    OFFSET 2.48547 -0.328903 0.83742
                  }
                }
              }
              JOINT lRing1
              {
                OFFSET 8.82822 0.546677 1.51678
                CHANNELS 3 Zrotation Xrotation Yrotation
                JOINT lRing2
                {
                  OFFSET 2.60934 -0.819778 -0.0198488
                  CHANNELS 3 Zrotation Xrotation Yrotation
                  End Site
                  {
                    OFFSET 2.33842 -0.294052 0.168128
                  }
                }
              }
              JOINT lPinky1
              {
                OFFSET 8.27202 -0.0477905 -0.4584
                CHANNELS 3 Zrotation Xrotation Yrotation
                JOINT lPinky2
                {
                  OFFSET 1.82734 -0.647385 -0.700984
                  CHANNELS 3 Zrotation Xrotation Yrotation
                  End Site
                  {
                    OFFSET 1.69225 -0.51767 -0.607171
                  }
                }
              }
            }
          }
        }
      }
    }
  }
  JOINT rButtock
  {
    OFFSET -8.77824 4.35084 1.2192
    CHANNELS 3 Zrotation Xrotation Yrotation
    JOINT rThigh
    {
      OFFSET 0 -1.70687 -2.19456
      CHANNELS 3 Zrotation Xrotation Yrotation
      JOINT rShin
      {
        OFFSET 0 -36.8199 0.73152
        CHANNELS 3 Zrotation Xrotation Yrotation
        JOINT rFoot
        {
          OFFSET 0.73152 -45.1104 -5.12064
          CHANNELS 3 Zrotation Xrotation Yrotation
          End Site
          {
            OFFSET -1.1221 -3.69964 12.103
          }
        }
      }
    }
  }
  JOINT lButtock
  {
    OFFSET 8.77824 4.35084 1.2192
    CHANNELS 3 Zrotation Xrotation Yrotation
    JOINT lThigh
    {
      OFFSET 0 -1.70687 -2.19456
      CHANNELS 3 Zrotation Xrotation Yrotation
      JOINT lShin
      {
        OFFSET 0 -36.8199 0.73152
        CHANNELS 3 Zrotation Xrotation Yrotation
        JOINT lFoot
        {
          OFFSET -0.73152 -45.1104 -5.12064
          CHANNELS 3 Zrotation Xrotation Yrotation
          End Site
          {
            OFFSET 1.1221 -3.69964 12.103
          }
        }
      }
    }
  }
}
MOTION
Frames:	9
Frame Time:	0.00833333
23.5892 83.6066 37.2375 172.131 2.3535 63.7986 5.13294 45.0492 -9.11935 -11.5348 -10.0756 -1.25359 -0.406924 7.14939 1.66481 2.34851 11.9422 6.47618 -0.0 0.0 0.0 -0.0 0.0 0.0 -5.5599e-14 -1.23447e-13 5.91831e-13 58.4603 5.88112 -52.6904 -28.0227 -30.7505 68.4507 -0.0138757 3.49133 0.491263 -2.17029e-09 8.87451e-11 2.36429e-09 -3.74035e-09 1.58349e-10 4.09542e-09 -2.17029e-09 8.87404e-11 2.36429e-09 7.73091 5.47488 0.417314 -2.17029e-09 8.8742e-11 2.36428e-09 2.90554 0.965183 0.102902 -2.17029e-09 8.87411e-11 2.36429e-09 10.2786 0.731801 0.0259123 -2.1703e-09 8.87422e-11 2.3643e-09 2.22167 -0.733487 -0.20892 -5.57072e-14 -1.23419e-13 5.91737e-13 116.75 35.3927 -88.8561 13.8817 -6.85943 -25.3163 151.128 -67.0065 160.658 -1.51536e-09 -3.48008e-10 6.34811e-10 -2.60105e-09 -4.92708e-10 9.24979e-10 -1.51537e-09 -3.47994e-10 6.34822e-10 -7.73091 5.47488 -0.417314 -1.51536e-09 -3.48002e-10 6.34798e-10 -2.90554 0.965183 -0.102902 -1.51537e-09 -3.47996e-10 6.34812e-10 -10.2786 0.731801 -0.0259123 -1.51536e-09 -3.47996e-10 6.34806e-10 -2.22167 -0.733487 0.20892 -2.03217e-16 0.0 -3.88251e-19 0.59616 22.4873 20.4573 0.0157748 23.3994 0.196075 3.31677 21.2123 -9.25105 2.03217e-16 0.0 3.88251e-19 -4.82061 46.3761 -5.8965 0.156771 22.9581 -0.144617 5.85229 30.1995 -11.6599
23.565 83.6731 37.3058 172.063 2.1377 63.8438 5.1157 45.0845 -8.87609 -11.7978 -10.0272 -1.21932 -0.11931 7.18429 1.85134 1.61525 11.6281 6.84927 -0.0 0.0 0.0 -0.0 0.0 0.0 -6.19472e-14 4.7619e-15 5.92925e-13 60.5954 6.70735 -53.1826 -28.0239 -30.7562 68.457 -0.0237399 4.39376 0.618727 -1.89267e-09 1.59219e-09 2.5562e-09 -3.25906e-09 2.76003e-09 4.42493e-09 -1.89266e-09 1.59218e-09 2.55619e-09 7.73091 5.47488 0.417314 -1.89267e-09 1.59218e-09 2.55619e-09 2.90554 0.965183 0.102902 -1.89266e-09 1.59218e-09 2.5562e-09 10.2786 0.731801 0.0259123 -1.89267e-09 1.59218e-09 2.55621e-09 2.22167 -0.733487 -0.20892 -6.20489e-14 4.77957e-15 5.92826e-13 115.088 35.3018 -86.2561 13.9101 -6.88214 -25.3735 149.594 -68.5851 159.002 -1.73051e-09 -1.34466e-09 1.64038e-09 -3.06383e-09 -2.10462e-09 2.60641e-09 -1.73052e-09 -1.34464e-09 1.64039e-09 -7.73091 5.47488 -0.417314 -1.73051e-09 -1.34465e-09 1.64036e-09 -2.90554 0.965183 -0.102902 -1.73052e-09 -1.34464e-09 1.64038e-09 -10.2786 0.731801 -0.0259123 -1.73051e-09 -1.34464e-09 1.64037e-09 -2.22167 -0.733487 0.20892 -2.03217e-16 0.0 -3.88251e-19 0.703642 22.27 20.3887 0.0115779 22.2711 0.188201 3.36413 21.002 -9.57976 2.03217e-16 0.0 3.88251e-19 -4.80898 46.8003 -4.94218 0.156104 23.833 -0.185663 7.05885 30.6334 -13.8581
23.5354 83.7391 37.3581 172.022 1.8875 63.8443 5.00757 45.1771 -8.61042 -12.0411 -10.0039 -1.18393 0.181983 7.24475 2.01503 0.906237 11.3278 7.1775 -0.0 0.0 0.0 -0.0 0.0 0.0 -4.58667e-14 9.14352e-14 4.05018e-13 62.6734 7.50026 -53.626 -28.0199 -30.7337 68.4247 -0.0335877 5.26104 0.741398 -1.18706e-09 2.42813e-09 2.2304e-09 -2.04158e-09 4.20444e-09 3.85763e-09 -1.18706e-09 2.42813e-09 2.23039e-09 7.73091 5.47488 0.417314 -1.18706e-09 2.42813e-09 2.23039e-09 2.90554 0.965183 0.102902 -1.18705e-09 2.42813e-09 2.2304e-09 10.2786 0.731801 0.0259123 -1.18706e-09 2.42813e-09 2.23041e-09 2.22167 -0.733487 -0.20892 -4.59803e-14 9.14463e-14 4.04881e-13 113.61 35.1044 -83.8165 13.9138 -6.88504 -25.3809 147.792 -70.1598 157.077 -1.43746e-09 -1.63239e-09 1.97272e-09 -2.60329e-09 -2.58653e-09 3.20216e-09 -1.43746e-09 -1.63237e-09 1.97273e-09 -7.73091 5.47488 -0.417314 -1.43746e-09 -1.63239e-09 1.9727e-09 -2.90554 0.965183 -0.102902 -1.43746e-09 -1.63237e-09 1.97272e-09 -10.2786 0.731801 -0.0259123 -1.43745e-09 -1.63237e-09 1.97271e-09 -2.22167 -0.733487 0.20892 -2.03217e-16 0.0 -3.88251e-19 0.798389 22.1928 20.3128 0.00527677 21.0884 0.181331 3.37424 20.5658 -9.92805 2.03217e-16 0.0 3.88251e-19 -4.8227 47.1032 -3.85751 0.157285 24.7829 -0.222448 7.97265 30.9281 -15.4593
23.4991 83.8071 37.3961 172.017 1.6039 63.7955 4.83827 45.3281 -8.33288 -12.264 -9.99985 -1.14551 0.483609 7.31625 2.15727 0.229176 11.0457 7.46302 -0.0 0.0 0.0 -0.0 0.0 0.0 -1.50239e-14 1.64392e-13 8.91611e-14 64.6779 8.27042 -54.0131 -28.0102 -30.679 68.3432 -0.0455817 6.16049 0.869003 -1.49782e-10 2.98589e-09 1.56042e-09 -2.53127e-10 5.16601e-09 2.69379e-09 -1.49779e-10 2.98589e-09 1.56041e-09 7.73091 5.47488 0.417314 -1.49785e-10 2.98589e-09 1.56043e-09 2.90554 0.965183 0.102902 -1.49777e-10 2.98589e-09 1.56042e-09 10.2786 0.731801 0.0259123 -1.49783e-10 2.98589e-09 1.56043e-09 2.22167 -0.733487 -0.20892 -1.51613e-14 1.64397e-13 8.89624e-14 112.266 34.8312 -81.4954 13.9003 -6.87432 -25.3539 145.649 -71.7266 154.81 -8.13912e-10 -1.56821e-09 1.9677e-09 -1.55272e-09 -2.51207e-09 3.26149e-09 -8.13917e-10 -1.5682e-09 1.96771e-09 -7.73091 5.47488 -0.417314 -8.13912e-10 -1.56822e-09 1.96769e-09 -2.90554 0.965183 -0.102902 -8.13916e-10 -1.5682e-09 1.9677e-09 -10.2786 0.731801 -0.0259123 -8.13907e-10 -1.5682e-09 1.96769e-09 -2.22167 -0.733487 0.20892 -2.03217e-16 0.0 -3.88251e-19 0.883654 22.26 20.2115 -0.00251178 19.8517 0.175787 3.34777 19.9691 -10.28 2.03217e-16 0.0 3.88251e-19 -4.84513 47.2947 -2.65422 0.160408 25.811 -0.258326 8.64131 31.1103 -16.5864
23.4521 83.8747 37.4212 172.058 1.2906 63.6829 4.62815 45.556 -8.07864 -12.4386 -10.0211 -1.10797 0.765391 7.40098 2.28136 -0.419825 10.7844 7.71859 -0.0 0.0 0.0 -0.0 0.0 0.0 2.05861e-14 2.09617e-13 -2.34626e-13 66.5831 9.04027 -54.3255 -27.9935 -30.58 68.1856 -0.0582267 6.92884 0.978467 8.98398e-10 3.15464e-09 7.79252e-10 1.55361e-09 5.45446e-09 1.33803e-09 8.98401e-10 3.15465e-09 7.79245e-10 7.73091 5.47488 0.417314 8.98393e-10 3.15465e-09 7.79267e-10 2.90554 0.965183 0.102902 8.98402e-10 3.15465e-09 7.7925e-10 10.2786 0.731801 0.0259123 8.98398e-10 3.15465e-09 7.79259e-10 2.22167 -0.733487 -0.20892 2.04293e-14 2.09619e-13 -2.34886e-13 110.975 34.4878 -79.2599 13.8806 -6.85854 -25.3142 143.069 -73.2793 152.105 -9.57722e-11 -1.28815e-09 1.73073e-09 -3.19909e-10 -2.09239e-09 2.93465e-09 -9.5777e-11 -1.28814e-09 1.73073e-09 -7.73091 5.47488 -0.417314 -9.57721e-11 -1.28817e-09 1.73072e-09 -2.90554 0.965183 -0.102902 -9.57758e-11 -1.28814e-09 1.73072e-09 -10.2786 0.731801 -0.0259123 -9.57677e-11 -1.28814e-09 1.73071e-09 -2.22167 -0.733487 0.20892 -2.03217e-16 0.0 -3.88251e-19 0.961525 22.486 20.1053 -0.01018 18.6154 0.170187 3.29122 19.2852 -10.6117 2.03217e-16 0.0 3.88251e-19 -4.86825 47.3867 -1.44359 0.165713 26.8896 -0.292576 9.09155 31.2252 -17.3136
23.3896 83.9357 37.4393 172.154 0.952 63.471 4.398 45.8797 -7.88324 -12.537 -10.0738 -1.07523 1.00714 7.50114 2.39057 -1.0444 10.5461 7.9569 -0.0 0.0 0.0 -0.0 0.0 0.0 5.09683e-14 2.13096e-13 -4.46321e-13 68.3628 9.83318 -54.5465 -27.9678 -30.4239 67.9255 -0.0676914 7.40286 1.04629 1.63671e-09 2.82358e-09 1.19881e-10 2.82593e-09 4.8795e-09 1.94976e-10 1.63672e-09 2.82358e-09 1.19875e-10 7.73091 5.47488 0.417314 1.63671e-09 2.82358e-09 1.19901e-10 2.90554 0.965183 0.102902 1.63672e-09 2.82359e-09 1.1988e-10 10.2786 0.731801 0.0259123 1.63671e-09 2.82359e-09 1.19888e-10 2.22167 -0.733487 -0.20892 5.08128e-14 2.13097e-13 -4.46619e-13 109.659 34.0717 -77.0786 13.8652 -6.84628 -25.2833 139.921 -74.8083 148.83 4.81064e-10 -9.28235e-10 1.3672e-09 6.87363e-10 -1.53866e-09 2.37188e-09 4.81059e-10 -9.28236e-10 1.3672e-09 -7.73091 5.47488 -0.417314 4.81064e-10 -9.2826e-10 1.36719e-09 -2.90554 0.965183 -0.102902 4.8106e-10 -9.28235e-10 1.36719e-09 -10.2786 0.731801 -0.0259123 4.81067e-10 -9.28237e-10 1.36718e-09 -2.22167 -0.733487 0.20892 -2.03217e-16 0.0 -3.88251e-19 1.03406 22.8854 20.0151 -0.0162205 17.4343 0.16317 3.21413 18.587 -10.8999 2.03217e-16 0.0 3.88251e-19 -4.88418 47.3958 -0.337025 0.173293 27.9908 -0.324408 9.3583 31.3106 -17.7193
23.3111 84.0048 37.4527 172.309 0.5904 63.1668 4.15755 46.3343 -7.77456 -12.5387 -10.1759 -1.05163 1.19242 7.62851 2.48367 -1.65211 10.3293 8.18112 -0.0 0.0 0.0 -0.0 0.0 0.0 7.48976e-14 1.43123e-13 -5.01098e-13 69.9975 10.6739 -54.6812 -27.929 -30.2041 67.5765 -0.0710391 7.5235 1.06366 1.97203e-09 1.61542e-09 -4.0692e-10 3.40305e-09 2.789e-09 -7.15821e-10 1.97203e-09 1.61543e-09 -4.06924e-10 7.73091 5.47488 0.417314 1.97202e-09 1.61543e-09 -4.06902e-10 2.90554 0.965183 0.102902 1.97203e-09 1.61543e-09 -4.0692e-10 10.2786 0.731801 0.0259123 1.97203e-09 1.61543e-09 -4.06912e-10 2.22167 -0.733487 -0.20892 7.47774e-14 1.43126e-13 -5.01401e-13 108.294 33.5943 -74.9537 13.8573 -6.83996 -25.2674 136.085 -76.274 144.87 9.05869e-10 -3.53972e-10 7.20192e-10 1.46632e-09 -6.37254e-10 1.2993e-09 9.05865e-10 -3.53973e-10 7.20188e-10 -7.73091 5.47488 -0.417314 9.05869e-10 -3.53994e-10 7.20189e-10 -2.90554 0.965183 -0.102902 9.05866e-10 -3.53973e-10 7.20183e-10 -10.2786 0.731801 -0.0259123 9.05872e-10 -3.53973e-10 7.20173e-10 -2.22167 -0.733487 0.20892 -2.03217e-16 0.0 -3.88251e-19 1.09843 23.5008 19.9618 -0.0203143 16.2646 0.153728 3.10815 17.8379 -11.1343 2.03217e-16 0.0 3.88251e-19 -4.876 47.34 0.656495 0.183216 29.1489 -0.354385 9.40206 31.3651 -17.7403
23.2158 84.0805 37.4649 172.524 0.2075 62.7918 3.89522 46.9 -7.72868 -12.4631 -10.3188 -1.03396 1.33567 7.77821 2.55962 -2.23975 10.1333 8.38468 -0.0 0.0 0.0 -0.0 0.0 0.0 9.72245e-14 1.64939e-14 -4.6724e-13 71.4991 11.5537 -54.7382 -27.8759 -29.9247 67.1496 -0.0688661 7.383 1.04362 2.07795e-09 -2.94815e-10 -9.08293e-10 3.5842e-09 -5.15067e-10 -1.58071e-09 2.07795e-09 -2.94812e-10 -9.08294e-10 7.73091 5.47488 0.417314 2.07795e-09 -2.94811e-10 -9.0828e-10 2.90554 0.965183 0.102902 2.07796e-09 -2.94809e-10 -9.0829e-10 10.2786 0.731801 0.0259123 2.07795e-09 -2.94807e-10 -9.08282e-10 2.22167 -0.733487 -0.20892 9.71622e-14 1.65044e-14 -4.67529e-13 106.926 33.0668 -72.8955 13.851 -6.83496 -25.2549 131.341 -77.6632 140.001 1.28706e-09 4.50268e-10 -2.0483e-10 2.19912e-09 6.3447e-10 -2.58585e-10 1.28706e-09 4.50268e-10 -2.04833e-10 -7.73091 5.47488 -0.417314 1.28706e-09 4.50255e-10 -2.0483e-10 -2.90554 0.965183 -0.102902 1.28706e-09 4.50268e-10 -2.04836e-10 -10.2786 0.731801 -0.0259123 1.28707e-09 4.50268e-10 -2.04844e-10 -2.22167 -0.733487 0.20892 -2.03217e-16 0.0 -3.88251e-19 1.15495 24.3118 19.9321 -0.0233879 15.0967 0.142826 2.97291 17.0181 -11.3301 2.03217e-16 0.0 3.88251e-19 -4.84204 47.209 1.58137 0.195372 30.3649 -0.382742 9.21496 31.3779 -17.3604
23.104 84.1617 37.4746 172.796 -0.1975 62.366 3.59993 47.5138 -7.70346 -12.3411 -10.4684 -1.01489 1.46309 7.92743 2.622 -2.79466 9.96241 8.56562 -0.0 0.0 0.0 -0.0 0.0 0.0 1.17068e-13 -1.08048e-13 -3.94398e-13 72.8875 12.4469 -54.7041 -27.8094 -29.586 66.6166 -0.0624322 7.04524 0.995335 2.03383e-09 -2.18953e-09 -1.32812e-09 3.50675e-09 -3.79193e-09 -2.30393e-09 2.03383e-09 -2.18952e-09 -1.32812e-09 7.73091 5.47488 0.417314 2.03383e-09 -2.18952e-09 -1.32811e-09 2.90554 0.965183 0.102902 2.03384e-09 -2.18952e-09 -1.32811e-09 10.2786 0.731801 0.0259123 2.03382e-09 -2.18952e-09 -1.3281e-09 2.22167 -0.733487 -0.20892 1.17064e-13 -1.08031e-13 -3.94664e-13 105.58 32.4778 -70.8899 13.844 -6.82933 -25.2407 125.224 -78.9861 133.755 1.56746e-09 1.17013e-09 -1.05889e-09 2.7554e-09 1.77887e-09 -1.70389e-09 1.56746e-09 1.17013e-09 -1.05889e-09 -7.73091 5.47488 -0.417314 1.56747e-09 1.17013e-09 -1.05889e-09 -2.90554 0.965183 -0.102902 1.56746e-09 1.17013e-09 -1.0589e-09 -10.2786 0.731801 -0.0259123 1.56747e-09 1.17014e-09 -1.0589e-09 -2.22167 -0.733487 0.20892 -2.03217e-16 0.0 -3.88251e-19 1.21088 25.2397 19.8953 -0.0257101 14.0358 0.132004 2.83276 16.2248 -11.5017 2.03217e-16 0.0 3.88251e-19 -4.79833 46.981 2.40701 0.209224 31.5608 -0.407996 8.88462 31.3664 -16.7307
